<mxfile host="app.diagrams.net" modified="2024-01-01T13:49:10.545Z" agent="Mozilla/5.0 (Windows NT 10.0; Win64; x64) AppleWebKit/537.36 (KHTML, like Gecko) Chrome/120.0.0.0 Safari/537.36" etag="SNY_h-FjeQ4Zlj9erCLA" version="22.1.16" type="device">
  <diagram name="Page-1" id="lV1C1_Gri0xMSS3H4Hek">
    <mxGraphModel dx="3591" dy="1854" grid="0" gridSize="10" guides="1" tooltips="1" connect="1" arrows="1" fold="1" page="0" pageScale="1" pageWidth="850" pageHeight="1100" math="0" shadow="0">
      <root>
        <mxCell id="0" />
        <mxCell id="1" parent="0" />
        <mxCell id="0phGbu0g7QWJIcqrPagq-284" style="edgeStyle=orthogonalEdgeStyle;rounded=0;orthogonalLoop=1;jettySize=auto;html=1;" edge="1" parent="1">
          <mxGeometry relative="1" as="geometry">
            <mxPoint x="-278.99999999999955" y="39" as="sourcePoint" />
            <mxPoint x="743.4285714285716" y="39" as="targetPoint" />
            <Array as="points">
              <mxPoint x="-79" y="-58" />
              <mxPoint x="-79" y="130" />
            </Array>
          </mxGeometry>
        </mxCell>
        <mxCell id="0phGbu0g7QWJIcqrPagq-1" value="Query Service&lt;br&gt;&lt;b&gt;PORT:4002&lt;/b&gt;" style="rounded=0;whiteSpace=wrap;html=1;fontSize=16;" vertex="1" parent="1">
          <mxGeometry x="-377.55" y="40" width="153" height="90" as="geometry" />
        </mxCell>
        <mxCell id="0phGbu0g7QWJIcqrPagq-291" style="edgeStyle=orthogonalEdgeStyle;rounded=0;orthogonalLoop=1;jettySize=auto;html=1;" edge="1" parent="1" source="0phGbu0g7QWJIcqrPagq-275" target="0phGbu0g7QWJIcqrPagq-283">
          <mxGeometry relative="1" as="geometry" />
        </mxCell>
        <mxCell id="0phGbu0g7QWJIcqrPagq-275" value="Post Service&lt;br&gt;&lt;b style=&quot;border-color: var(--border-color);&quot;&gt;PORT:4000&lt;/b&gt;" style="rounded=0;whiteSpace=wrap;html=1;fontSize=16;" vertex="1" parent="1">
          <mxGeometry x="-377.05" y="239" width="152" height="84" as="geometry" />
        </mxCell>
        <mxCell id="0phGbu0g7QWJIcqrPagq-276" value="Moderation Service&lt;br&gt;&lt;b style=&quot;border-color: var(--border-color);&quot;&gt;PORT:4003&lt;/b&gt;" style="rounded=0;whiteSpace=wrap;html=1;fontSize=16;" vertex="1" parent="1">
          <mxGeometry x="-377" y="342" width="152.45" height="76" as="geometry" />
        </mxCell>
        <mxCell id="0phGbu0g7QWJIcqrPagq-277" value="Comment Service&lt;br&gt;&lt;b&gt;PORT:4001&lt;/b&gt;" style="rounded=0;whiteSpace=wrap;html=1;fontSize=16;" vertex="1" parent="1">
          <mxGeometry x="-378.77000000000004" y="143.5" width="156" height="72" as="geometry" />
        </mxCell>
        <mxCell id="0phGbu0g7QWJIcqrPagq-283" value="&lt;font style=&quot;font-size: 14px;&quot;&gt;Event Bus&lt;br&gt;&lt;b&gt;PORT:4005&lt;/b&gt;&lt;br&gt;&lt;/font&gt;" style="shape=cylinder3;whiteSpace=wrap;html=1;boundedLbl=1;backgroundOutline=1;size=15;" vertex="1" parent="1">
          <mxGeometry x="634" y="-372" width="219" height="412" as="geometry" />
        </mxCell>
        <mxCell id="0phGbu0g7QWJIcqrPagq-299" style="edgeStyle=orthogonalEdgeStyle;rounded=0;orthogonalLoop=1;jettySize=auto;html=1;entryX=0.5;entryY=1;entryDx=0;entryDy=0;entryPerimeter=0;" edge="1" parent="1" source="0phGbu0g7QWJIcqrPagq-276" target="0phGbu0g7QWJIcqrPagq-283">
          <mxGeometry relative="1" as="geometry" />
        </mxCell>
        <mxCell id="0phGbu0g7QWJIcqrPagq-303" value="" style="strokeWidth=2;html=1;shape=mxgraph.flowchart.annotation_2;align=left;labelPosition=right;pointerEvents=1;rotation=0;" vertex="1" parent="1">
          <mxGeometry x="-427.05" y="60" width="50" height="311.99" as="geometry" />
        </mxCell>
        <mxCell id="0phGbu0g7QWJIcqrPagq-306" style="edgeStyle=orthogonalEdgeStyle;rounded=0;orthogonalLoop=1;jettySize=auto;html=1;entryX=0;entryY=0.5;entryDx=0;entryDy=0;entryPerimeter=0;" edge="1" parent="1" source="0phGbu0g7QWJIcqrPagq-283" target="0phGbu0g7QWJIcqrPagq-303">
          <mxGeometry relative="1" as="geometry" />
        </mxCell>
        <mxCell id="0phGbu0g7QWJIcqrPagq-311" value="&lt;br&gt;&lt;span style=&quot;color: rgb(0, 0, 0); font-family: Helvetica; font-size: 12px; font-style: normal; font-variant-ligatures: normal; font-variant-caps: normal; font-weight: 400; letter-spacing: normal; orphans: 2; text-align: center; text-indent: 0px; text-transform: none; widows: 2; word-spacing: 0px; -webkit-text-stroke-width: 0px; background-color: rgb(255, 255, 255); text-decoration-thickness: initial; text-decoration-style: initial; text-decoration-color: initial; float: none; display: inline !important;&quot;&gt;{type: &quot;CommentUpdated&quot;, id: 1, content: &#39;test&#39;, status: &#39;approved&#39;}&lt;/span&gt;" style="whiteSpace=wrap;html=1;align=center;" vertex="1" parent="1">
          <mxGeometry x="-126" y="315" width="169" height="81" as="geometry" />
        </mxCell>
        <mxCell id="0phGbu0g7QWJIcqrPagq-312" value="&lt;br&gt;&lt;span style=&quot;color: rgb(0, 0, 0); font-family: Helvetica; font-size: 12px; font-style: normal; font-variant-ligatures: normal; font-variant-caps: normal; font-weight: 400; letter-spacing: normal; orphans: 2; text-align: center; text-indent: 0px; text-transform: none; widows: 2; word-spacing: 0px; -webkit-text-stroke-width: 0px; background-color: rgb(255, 255, 255); text-decoration-thickness: initial; text-decoration-style: initial; text-decoration-color: initial; float: none; display: inline !important;&quot;&gt;{type: &quot;PostCreated&quot;, id: 1, description: &#39;test&#39;, comments: []}&lt;/span&gt;" style="whiteSpace=wrap;html=1;align=center;" vertex="1" parent="1">
          <mxGeometry x="325" y="224.5" width="169" height="81" as="geometry" />
        </mxCell>
        <mxCell id="0phGbu0g7QWJIcqrPagq-313" value="Event bus is notifying services of what types of events has occurred throughout our applications also managing states/data of services between other services" style="whiteSpace=wrap;html=1;align=center;" vertex="1" parent="1">
          <mxGeometry x="12" y="-220" width="172" height="108" as="geometry" />
        </mxCell>
        <mxCell id="0phGbu0g7QWJIcqrPagq-324" style="edgeStyle=orthogonalEdgeStyle;rounded=0;orthogonalLoop=1;jettySize=auto;html=1;entryX=0;entryY=0.25;entryDx=0;entryDy=0;" edge="1" parent="1" source="0phGbu0g7QWJIcqrPagq-317" target="0phGbu0g7QWJIcqrPagq-1">
          <mxGeometry relative="1" as="geometry" />
        </mxCell>
        <mxCell id="0phGbu0g7QWJIcqrPagq-317" value="Query service is responsible for getting the data from all the other services for example post and comments whenever a new post/comment is created both of them fire an event that sends a notification with the data to query service. Additionally Query service is also responsible for storing data on event bus in case of failure" style="rounded=0;whiteSpace=wrap;html=1;fontSize=16;" vertex="1" parent="1">
          <mxGeometry x="-1069" y="-483" width="233" height="250" as="geometry" />
        </mxCell>
        <mxCell id="0phGbu0g7QWJIcqrPagq-325" style="edgeStyle=orthogonalEdgeStyle;rounded=0;orthogonalLoop=1;jettySize=auto;html=1;entryX=0;entryY=0.5;entryDx=0;entryDy=0;" edge="1" parent="1" source="0phGbu0g7QWJIcqrPagq-318" target="0phGbu0g7QWJIcqrPagq-277">
          <mxGeometry relative="1" as="geometry" />
        </mxCell>
        <mxCell id="0phGbu0g7QWJIcqrPagq-318" value="Comment service is responsible for creating comments whenever a new comment is added it fires an event notifying Moderation and Query service" style="rounded=0;whiteSpace=wrap;html=1;fontSize=16;" vertex="1" parent="1">
          <mxGeometry x="-1069" y="-205" width="233" height="250" as="geometry" />
        </mxCell>
        <mxCell id="0phGbu0g7QWJIcqrPagq-326" style="edgeStyle=orthogonalEdgeStyle;rounded=0;orthogonalLoop=1;jettySize=auto;html=1;entryX=0;entryY=0.75;entryDx=0;entryDy=0;" edge="1" parent="1" source="0phGbu0g7QWJIcqrPagq-319" target="0phGbu0g7QWJIcqrPagq-275">
          <mxGeometry relative="1" as="geometry" />
        </mxCell>
        <mxCell id="0phGbu0g7QWJIcqrPagq-319" value="Post Service is responsible for creating new posts&amp;nbsp;" style="rounded=0;whiteSpace=wrap;html=1;fontSize=16;" vertex="1" parent="1">
          <mxGeometry x="-1069" y="88" width="233" height="250" as="geometry" />
        </mxCell>
        <mxCell id="0phGbu0g7QWJIcqrPagq-327" style="edgeStyle=orthogonalEdgeStyle;rounded=0;orthogonalLoop=1;jettySize=auto;html=1;entryX=0.5;entryY=1;entryDx=0;entryDy=0;" edge="1" parent="1" source="0phGbu0g7QWJIcqrPagq-320" target="0phGbu0g7QWJIcqrPagq-276">
          <mxGeometry relative="1" as="geometry" />
        </mxCell>
        <mxCell id="0phGbu0g7QWJIcqrPagq-320" value="Moderation service is responsible for notifying query service that a comment has been updated&amp;nbsp;" style="rounded=0;whiteSpace=wrap;html=1;fontSize=16;" vertex="1" parent="1">
          <mxGeometry x="-1069" y="390" width="233" height="250" as="geometry" />
        </mxCell>
        <mxCell id="0phGbu0g7QWJIcqrPagq-322" style="edgeStyle=orthogonalEdgeStyle;rounded=0;orthogonalLoop=1;jettySize=auto;html=1;entryX=0.5;entryY=1;entryDx=0;entryDy=0;entryPerimeter=0;" edge="1" parent="1" source="0phGbu0g7QWJIcqrPagq-277" target="0phGbu0g7QWJIcqrPagq-283">
          <mxGeometry relative="1" as="geometry" />
        </mxCell>
        <mxCell id="0phGbu0g7QWJIcqrPagq-323" value="&#xa;&lt;span style=&quot;color: rgb(0, 0, 0); font-family: Helvetica; font-size: 12px; font-style: normal; font-variant-ligatures: normal; font-variant-caps: normal; font-weight: 400; letter-spacing: normal; orphans: 2; text-align: center; text-indent: 0px; text-transform: none; widows: 2; word-spacing: 0px; -webkit-text-stroke-width: 0px; background-color: rgb(255, 255, 255); text-decoration-thickness: initial; text-decoration-style: initial; text-decoration-color: initial; float: none; display: inline !important;&quot;&gt;{type: &quot;CommentCreated&quot;, id: 1, content: &#39;test&#39;, status: &#39;pending&#39;}&lt;/span&gt;&#xa;&#xa;" style="whiteSpace=wrap;html=1;align=center;" vertex="1" parent="1">
          <mxGeometry x="-100" y="143.5" width="169" height="81" as="geometry" />
        </mxCell>
      </root>
    </mxGraphModel>
  </diagram>
</mxfile>
